<svg id="Capa_1" enable-background="new 0 0 512 512" height="512" viewBox="0 0 512 512" width="512" xmlns="http://www.w3.org/2000/svg"><g><path d="m132.296 450.699v-107.988h-75.218v107.987c0 16.415 13.307 29.723 29.723 29.723h15.772c16.416.001 29.723-13.307 29.723-29.722z" fill="#5a5a5a"/><path d="m450.59 450.699v-107.988h-75.219v107.987c0 16.415 13.308 29.723 29.723 29.723h15.772c16.416.001 29.724-13.307 29.724-29.722z" fill="#5a5a5a"/><path d="m108.935 342.711v107.987c0 15.129-11.306 27.609-25.929 29.473 1.244.159 2.508.25 3.795.25h18.692c16.416 0 29.723-13.307 29.723-29.723v-107.987z" fill="#444"/><path d="m427.228 342.711v107.987c0 15.129-11.306 27.609-25.928 29.473 1.244.159 2.508.25 3.795.25h18.692c16.416 0 29.723-13.307 29.723-29.723v-107.987z" fill="#444"/><path d="m404.53 237.059h55.919c7.71 0 13.96-6.25 13.96-13.96v-20.515c0-5.14-4.167-9.307-9.307-9.307h-60.572z" fill="#9c9c9c"/><path d="m465.102 193.278h-14.601c5.14 0 9.307 4.167 9.307 9.307v20.515c0 7.71-6.25 13.96-13.96 13.96h14.601c7.71 0 13.96-6.25 13.96-13.96v-20.515c-.001-5.14-4.168-9.307-9.307-9.307z" fill="#838383"/><path d="m106.058 237.059h-55.919c-7.71 0-13.96-6.25-13.96-13.96v-20.515c0-5.14 4.167-9.307 9.307-9.307h60.572z" fill="#9c9c9c"/><path d="m382.224 31.578h-256.78c-14.448 0-26.755 13.377-29.035 31.559l-25.175 200.768h365.199l-25.174-200.768c-2.28-18.182-14.587-31.559-29.035-31.559z" fill="#5a5a5a"/><path d="m386.041 31.605h-28.926c14.448 0 26.755 13.376 29.035 31.558l25.171 200.742h28.032l-25.174-200.768c-2.233-17.804-14.081-30.991-28.138-31.532z" fill="#444"/><path d="m386.58 66.598c-.503-4.012-1.979-6.297-2.801-7.204h-256.97c-.823.908-2.299 3.192-2.802 7.204-24.474 195.183-20.27 162.224-24.595 194.21h311.521c-4.602-36.692-24.081-192.044-24.353-194.21z" fill="#acacac"/><path d="m238.403 252.429h-91.709v-31.3c0-10.357 8.396-18.753 18.753-18.753h54.203c10.357 0 18.753 8.396 18.753 18.753z" fill="#0ab69f"/><path d="m195.94 95.707h-31.48c-9.723 0-17.355 8.335-16.501 18.02l4.541 51.503h43.441v-69.523z" fill="#9e5528"/><g><path d="m209.182 198.658v-23.218h-33.021v23.219c0 9.118 7.392 16.51 16.51 16.51 9.119 0 16.511-7.392 16.511-16.511z" fill="#ffb09e"/><path d="m173.8 165.613h-21.051c-7.465 0-13.517-6.052-13.517-13.517s6.052-13.517 13.517-13.517h21.051z" fill="#ffb09e"/><path d="m232.472 165.613h-20.929v-27.034h20.929c7.465 0 13.517 6.052 13.517 13.517s-6.052 13.517-13.517 13.517z" fill="#ffa78f"/><path d="m192.489 198.84c21.636 0 39.176-17.54 39.176-39.176v-15.096c0-21.636-17.54-39.176-39.176-39.176s-39.176 17.54-39.176 39.176v15.096c0 21.636 17.54 39.176 39.176 39.176z" fill="#ffcebf"/><path d="m192.489 105.392c-1.985 0-3.935.15-5.84.436 18.866 2.82 33.336 19.089 33.336 38.74v15.096c0 19.651-14.47 35.92-33.336 38.74 1.906.285 3.855.436 5.84.436 21.636 0 39.176-17.54 39.176-39.176v-15.096c0-21.636-17.539-39.176-39.176-39.176z" fill="#ffb09e"/></g><path d="m365.682 204.288c4.76-5.634 7.02-13.49 6.129-21.306l-2.974-26.071c-3.212-28.163-22.281-51.993-49.054-61.303l-27.413 9.532c-9.973 3.468-17.264 13.387-18.627 25.344l-5.988 52.499c-.891 7.815 1.369 15.672 6.129 21.306 4.167 4.932 9.874 7.712 15.832 7.712h60.132c5.959-.001 11.666-2.781 15.834-7.713z" fill="#c86d36"/><path d="m371.811 182.982-2.974-26.072c-3.212-28.163-22.281-51.993-49.054-61.303l-9.799 3.408c22.436 10.96 38.021 32.688 40.896 57.895l2.973 26.072c.892 7.815-1.368 15.672-6.129 21.306-4.167 4.932-9.874 7.712-15.832 7.712h17.958c5.958 0 11.665-2.78 15.833-7.712 4.759-5.634 7.019-13.491 6.128-21.306z" fill="#ac5e2e"/><path d="m363.523 252.429h-87.603v-29.898c0-9.893 8.02-17.913 17.913-17.913h51.776c9.893 0 17.913 8.02 17.913 17.913v29.898z" fill="#0ab69f"/><path d="m241.318 138.044h-54.79c-15.096 0-27.334-12.238-27.334-27.334v-7.358c0-11.032 8.944-19.976 19.976-19.976h35.143c14.914 0 27.005 12.09 27.005 27.005z" fill="#ac5e2e"/><path d="m216.9 173.106h-6.691c-1.984 0-3.592-1.608-3.592-3.592s1.608-3.592 3.592-3.592h6.691c1.984 0 3.592 1.608 3.592 3.592s-1.608 3.592-3.592 3.592z" fill="#fe8f83"/><path d="m175.193 173.106h-6.691c-1.984 0-3.592-1.608-3.592-3.592s1.608-3.592 3.592-3.592h6.691c1.984 0 3.592 1.608 3.592 3.592s-1.609 3.592-3.592 3.592z" fill="#fe8f83"/><path d="m214.313 83.376h-16.92c14.914 0 27.005 12.09 27.005 27.005v27.664h16.92v-27.665c0-14.914-12.091-27.004-27.005-27.004z" fill="#9e5528"/><g><path d="m336.293 200.327v-23.219h-33.021v23.219c0 9.118 7.392 16.51 16.51 16.51 9.119 0 16.511-7.392 16.511-16.51z" fill="#ffb09e"/><path d="m300.911 167.281h-21.051c-7.465 0-13.517-6.052-13.517-13.517s6.052-13.517 13.517-13.517h21.051z" fill="#ffb09e"/><path d="m359.584 167.281h-20.929v-27.034h20.929c7.465 0 13.517 6.052 13.517 13.517-.001 7.465-6.052 13.517-13.517 13.517z" fill="#ffa78f"/><path d="m319.601 200.508c21.636 0 39.176-17.54 39.176-39.176v-15.096c0-21.636-17.54-39.176-39.176-39.176s-39.176 17.54-39.176 39.176v15.096c0 21.637 17.539 39.176 39.176 39.176z" fill="#ffcebf"/><path d="m319.601 107.06c-1.985 0-3.935.15-5.84.436 18.866 2.82 33.336 19.089 33.336 38.74v15.096c0 19.651-14.47 35.92-33.336 38.74 1.906.285 3.855.436 5.84.436 21.636 0 39.176-17.54 39.176-39.176v-15.096c0-21.636-17.54-39.176-39.176-39.176z" fill="#ffb09e"/></g><path d="m365.055 140.247h-50.679c-14.156 0-25.632-11.476-25.632-25.632 0-13.072 10.597-23.669 23.669-23.669h19.639c18.227 0 33.003 14.776 33.003 33.003z" fill="#d77f4a"/><path d="m332.052 90.945h-17.958c18.227 0 33.003 14.776 33.003 33.003v16.299h17.958v-16.299c-.001-18.227-14.776-33.003-33.003-33.003z" fill="#c86d36"/><path d="m342.637 175.423h-6.391c-1.895 0-3.431-1.536-3.431-3.431s1.536-3.431 3.431-3.431h6.391c1.895 0 3.431 1.536 3.431 3.431.001 1.895-1.536 3.431-3.431 3.431z" fill="#fe8f83"/><path d="m303.32 175.423h-6.391c-1.895 0-3.431-1.536-3.431-3.431s1.536-3.431 3.431-3.431h6.391c1.895 0 3.431 1.536 3.431 3.431.001 1.895-1.536 3.431-3.431 3.431z" fill="#fe8f83"/><g><g><path d="m174.968 162.533c-2.845 0-5.151-2.306-5.151-5.151v-4.121c0-2.845 2.306-5.151 5.151-5.151s5.151 2.306 5.151 5.151v4.121c0 2.845-2.306 5.151-5.151 5.151z" fill="#5a5a5a"/></g><g><path d="m210.01 162.533c-2.845 0-5.151-2.306-5.151-5.151v-4.121c0-2.845 2.306-5.151 5.151-5.151s5.151 2.306 5.151 5.151v4.121c0 2.845-2.306 5.151-5.151 5.151z" fill="#5a5a5a"/></g></g><g><g><path d="m302.262 165.652c-2.845 0-5.151-2.306-5.151-5.151v-4.121c0-2.845 2.306-5.151 5.151-5.151s5.151 2.306 5.151 5.151v4.121c-.001 2.845-2.306 5.151-5.151 5.151z" fill="#5a5a5a"/></g><g><path d="m337.304 165.652c-2.845 0-5.151-2.306-5.151-5.151v-4.121c0-2.845 2.306-5.151 5.151-5.151s5.151 2.306 5.151 5.151v4.121c0 2.845-2.306 5.151-5.151 5.151z" fill="#5a5a5a"/></g></g><g><path d="m192.489 286.324c-22.807 0-41.362-18.555-41.362-41.362 0-22.808 18.555-41.363 41.362-41.363 22.808 0 41.363 18.555 41.363 41.363 0 22.807-18.555 41.362-41.363 41.362zm0-67.273c-14.287 0-25.909 11.624-25.909 25.91s11.623 25.909 25.909 25.909c14.287 0 25.91-11.623 25.91-25.909s-11.623-25.91-25.91-25.91z" fill="#5a5a5a"/></g><path d="m453.914 237.059h-400.161c-19.306 0-34.957 15.651-34.957 34.957v102.754h470.076v-102.753c0-19.307-15.651-34.958-34.958-34.958z" fill="#528fd8"/><g fill="#ffe177"><circle cx="96.147" cy="302.994" r="33.898"/><circle cx="414.441" cy="302.994" r="33.898"/></g><path d="m346.162 329.844h-181.737c-4.223 0-7.647-3.424-7.647-7.647v-46.517c0-4.223 3.424-7.647 7.647-7.647h181.737c4.223 0 7.647 3.424 7.647 7.647v46.516c.001 4.224-3.423 7.648-7.647 7.648z" fill="#82aee3"/><path d="m156.778 291.212h197.032v15.453h-197.032z" fill="#c0d6f2"/><path d="m456.835 237.059h-29.202c19.306 0 34.957 15.651 34.957 34.957v102.754h29.202v-102.753c0-19.307-15.651-34.958-34.957-34.958z" fill="#3c87d0"/><path d="m509.08 406.528v-37.782c0-5.265-4.268-9.534-9.534-9.534h-490.012c-5.265 0-9.534 4.269-9.534 9.534v37.782c0 5.266 4.268 9.534 9.534 9.534h490.012c5.265-.001 9.534-4.269 9.534-9.534z" fill="#c0d6f2"/><path d="m502.466 359.212h-32.122c5.265 0 9.534 4.269 9.534 9.534v37.782c0 5.266-4.268 9.534-9.534 9.534h32.122c5.265 0 9.534-4.268 9.534-9.534v-37.782c0-5.266-4.268-9.534-9.534-9.534z" fill="#b3ceec"/></g></svg>